<svg width="610" height="164" viewBox="0 0 610 164" fill="none" xmlns="http://www.w3.org/2000/svg">
<path fill-rule="evenodd" clip-rule="evenodd" d="M0 17.0312C0 7.62092 7.63 0 17.0312 0H57.9062C67.3166 0 74.9375 7.63 74.9375 17.0312V57.9062C74.9375 67.3166 67.3075 74.9375 57.9062 74.9375H17.0312C12.5143 74.9375 8.18232 73.1431 4.98834 69.9492C1.79436 66.7552 0 62.4232 0 57.9062V17.0312ZM17.0312 13.625C16.1279 13.625 15.2615 13.9839 14.6227 14.6227C13.9839 15.2615 13.625 16.1279 13.625 17.0312V57.9062C13.625 59.7865 15.151 61.3125 17.0312 61.3125H57.9062C58.8096 61.3125 59.676 60.9536 60.3148 60.3148C60.9536 59.676 61.3125 58.8096 61.3125 57.9062V17.0312C61.3125 16.1279 60.9536 15.2615 60.3148 14.6227C59.676 13.9839 58.8096 13.625 57.9062 13.625H17.0312ZM88.5625 17.0312C88.5625 7.62092 96.1925 0 105.594 0H146.469C155.87 0 163.5 7.63 163.5 17.0312V57.9062C163.5 67.3166 155.87 74.9375 146.469 74.9375H105.594C101.077 74.9375 96.7448 73.1431 93.5508 69.9492C90.3568 66.7552 88.5625 62.4232 88.5625 57.9062V17.0312ZM105.594 13.625C104.69 13.625 103.824 13.9839 103.185 14.6227C102.546 15.2615 102.188 16.1279 102.188 17.0312V57.9062C102.188 59.7865 103.714 61.3125 105.594 61.3125H146.469C147.372 61.3125 148.239 60.9536 148.877 60.3148C149.516 59.676 149.875 58.8096 149.875 57.9062V17.0312C149.875 16.1279 149.516 15.2615 148.877 14.6227C148.239 13.9839 147.372 13.625 146.469 13.625H105.594ZM27.25 34.0625C27.25 32.2557 27.9677 30.5229 29.2453 29.2453C30.5229 27.9677 32.2557 27.25 34.0625 27.25H40.875C42.6818 27.25 44.4146 27.9677 45.6922 29.2453C46.9698 30.5229 47.6875 32.2557 47.6875 34.0625V40.875C47.6875 42.6818 46.9698 44.4146 45.6922 45.6922C44.4146 46.9698 42.6818 47.6875 40.875 47.6875H34.0625C32.2557 47.6875 30.5229 46.9698 29.2453 45.6922C27.9677 44.4146 27.25 42.6818 27.25 40.875V34.0625ZM115.812 34.0625C115.812 32.2557 116.53 30.5229 117.808 29.2453C119.085 27.9677 120.818 27.25 122.625 27.25H129.438C131.244 27.25 132.977 27.9677 134.255 29.2453C135.532 30.5229 136.25 32.2557 136.25 34.0625V40.875C136.25 42.6818 135.532 44.4146 134.255 45.6922C132.977 46.9698 131.244 47.6875 129.438 47.6875H122.625C120.818 47.6875 119.085 46.9698 117.808 45.6922C116.53 44.4146 115.812 42.6818 115.812 40.875V34.0625ZM0 105.594C0 96.1834 7.63 88.5625 17.0312 88.5625H57.9062C67.3166 88.5625 74.9375 96.1925 74.9375 105.594V146.469C74.9375 155.87 67.3075 163.5 57.9062 163.5H17.0312C12.5143 163.5 8.18232 161.706 4.98834 158.512C1.79436 155.318 0 150.986 0 146.469V105.594ZM17.0312 102.188C16.1279 102.188 15.2615 102.546 14.6227 103.185C13.9839 103.824 13.625 104.69 13.625 105.594V146.469C13.625 148.349 15.151 149.875 17.0312 149.875H57.9062C58.8096 149.875 59.676 149.516 60.3148 148.877C60.9536 148.239 61.3125 147.372 61.3125 146.469V105.594C61.3125 104.69 60.9536 103.824 60.3148 103.185C59.676 102.546 58.8096 102.188 57.9062 102.188H17.0312ZM88.5625 95.375C88.5625 93.5682 89.2802 91.8354 90.5578 90.5578C91.8354 89.2802 93.5682 88.5625 95.375 88.5625H102.188C103.994 88.5625 105.727 89.2802 107.005 90.5578C108.282 91.8354 109 93.5682 109 95.375V102.188C109 103.994 108.282 105.727 107.005 107.005C105.727 108.282 103.994 109 102.188 109H95.375C93.5682 109 91.8354 108.282 90.5578 107.005C89.2802 105.727 88.5625 103.994 88.5625 102.188V95.375ZM143.062 95.375C143.062 93.5682 143.78 91.8354 145.058 90.5578C146.335 89.2802 148.068 88.5625 149.875 88.5625H156.688C158.494 88.5625 160.227 89.2802 161.505 90.5578C162.782 91.8354 163.5 93.5682 163.5 95.375V102.188C163.5 103.994 162.782 105.727 161.505 107.005C160.227 108.282 158.494 109 156.688 109H149.875C148.068 109 146.335 108.282 145.058 107.005C143.78 105.727 143.062 103.994 143.062 102.188V95.375ZM27.25 122.625C27.25 120.818 27.9677 119.085 29.2453 117.808C30.5229 116.53 32.2557 115.812 34.0625 115.812H40.875C42.6818 115.812 44.4146 116.53 45.6922 117.808C46.9698 119.085 47.6875 120.818 47.6875 122.625V129.438C47.6875 131.244 46.9698 132.977 45.6922 134.255C44.4146 135.532 42.6818 136.25 40.875 136.25H34.0625C32.2557 136.25 30.5229 135.532 29.2453 134.255C27.9677 132.977 27.25 131.244 27.25 129.438V122.625Z" fill="#6F3EF0"/>
<path d="M98.5 126.25V132.571C98.5 138.936 99.928 145.574 105.269 149.036C109.46 151.752 115.919 154.25 125.5 154.25C134.214 154.25 140.603 152.184 145.097 149.766C151.864 146.126 154 138.176 154 130.491V126.25" stroke="#6F3EF0" stroke-width="19" stroke-linecap="round"/>
<path d="M242.805 66.6765L262.29 82.0764L252.353 90.5293L233.209 75.1295L242.805 66.6765ZM262.972 40.8319V43.9896C262.972 49.3658 262.225 54.1914 260.731 58.4665C259.237 62.7415 257.126 66.385 254.398 69.397C251.671 72.409 248.439 74.7246 244.705 76.344C241.003 77.9309 236.895 78.7244 232.381 78.7244C227.866 78.7244 223.742 77.9309 220.008 76.344C216.273 74.7246 213.025 72.409 210.265 69.397C207.537 66.385 205.426 62.7415 203.932 58.4665C202.439 54.1914 201.692 49.3658 201.692 43.9896V40.8319C201.692 35.4557 202.439 30.6301 203.932 26.3551C205.426 22.0476 207.521 18.3879 210.216 15.376C212.944 12.364 216.176 10.0645 219.91 8.47758C223.645 6.85825 227.769 6.04858 232.283 6.04858C236.797 6.04858 240.921 6.85825 244.656 8.47758C248.391 10.0645 251.622 12.364 254.35 15.376C257.078 18.3879 259.189 22.0476 260.682 26.3551C262.209 30.6301 262.972 35.4557 262.972 40.8319ZM246.848 43.9896V40.7348C246.848 37.1398 246.523 33.9659 245.874 31.2131C245.257 28.4278 244.315 26.096 243.049 24.2175C241.814 22.3391 240.288 20.9303 238.47 19.9911C236.651 19.0195 234.589 18.5337 232.283 18.5337C229.912 18.5337 227.818 19.0195 225.999 19.9911C224.213 20.9303 222.703 22.3391 221.469 24.2175C220.267 26.096 219.342 28.4278 218.692 31.2131C218.075 33.9659 217.767 37.1398 217.767 40.7348V43.9896C217.767 47.5522 218.075 50.7261 218.692 53.5113C219.342 56.2642 220.284 58.596 221.518 60.5069C222.752 62.4177 224.278 63.8589 226.097 64.8305C227.915 65.8021 230.01 66.2879 232.381 66.2879C234.686 66.2879 236.732 65.8021 238.518 64.8305C240.337 63.8589 241.863 62.4177 243.097 60.5069C244.331 58.596 245.257 56.2642 245.874 53.5113C246.523 50.7261 246.848 47.5522 246.848 43.9896Z" fill="#6F3EF0"/>
<path d="M272.617 7.02018H299.847C305.27 7.02018 309.963 7.82985 313.925 9.44919C317.919 11.0685 320.988 13.4651 323.132 16.639C325.275 19.8129 326.347 23.7317 326.347 28.3954C326.347 32.2818 325.713 35.5853 324.447 38.3058C323.18 41.0262 321.394 43.2771 319.089 45.0584C316.815 46.8397 314.152 48.2809 311.1 49.382L305.936 52.1997H282.749L282.652 39.9089H299.896C302.267 39.9089 304.231 39.4879 305.79 38.6458C307.349 37.8038 308.518 36.6216 309.297 35.0995C310.109 33.5449 310.515 31.7312 310.515 29.6585C310.515 27.521 310.109 25.6749 309.297 24.1204C308.485 22.5658 307.284 21.3837 305.693 20.574C304.134 19.732 302.185 19.3109 299.847 19.3109H288.497V77.7528H272.617V7.02018ZM311.879 77.7528L295.95 46.3215L312.707 46.2729L328.88 77.0241V77.7528H311.879Z" fill="#6F3EF0"/>
<path d="M402.728 54.0457H418.51C418.251 58.9037 416.919 63.1949 414.516 66.9194C412.145 70.6115 408.849 73.5101 404.627 75.6153C400.406 77.688 395.388 78.7244 389.575 78.7244C384.931 78.7244 380.775 77.9309 377.105 76.344C373.435 74.757 370.318 72.4899 367.752 69.5427C365.219 66.5632 363.271 62.9844 361.907 58.8065C360.575 54.5963 359.909 49.8516 359.909 44.5726V40.249C359.909 34.9699 360.608 30.2253 362.004 26.015C363.401 21.8047 365.398 18.2098 367.996 15.2302C370.594 12.2506 373.711 9.96737 377.349 8.38042C380.986 6.79347 385.045 6 389.527 6C395.567 6 400.665 7.08496 404.822 9.25487C408.979 11.4248 412.194 14.4044 414.467 18.1936C416.773 21.9828 418.153 26.3065 418.608 31.1645H402.776C402.646 28.4116 402.127 26.096 401.218 24.2175C400.308 22.3067 398.912 20.8655 397.028 19.8939C395.145 18.9223 392.644 18.4365 389.527 18.4365C387.253 18.4365 385.256 18.8575 383.535 19.6996C381.846 20.5416 380.434 21.8533 379.297 23.6346C378.193 25.4158 377.365 27.6829 376.813 30.4358C376.261 33.1563 375.985 36.3949 375.985 40.1518V44.5726C375.985 48.2971 376.228 51.5195 376.715 54.24C377.202 56.9605 377.982 59.2114 379.053 60.9927C380.158 62.7739 381.57 64.1018 383.291 64.9762C385.013 65.8507 387.107 66.2879 389.575 66.2879C392.401 66.2879 394.755 65.8507 396.639 64.9762C398.522 64.0694 399.967 62.7091 400.974 60.8955C401.981 59.0818 402.565 56.7986 402.728 54.0457Z" fill="#6F3EF0"/>
<path d="M486.464 40.8319V43.9896C486.464 49.3658 485.717 54.1914 484.223 58.4665C482.762 62.7415 480.667 66.385 477.94 69.397C475.244 72.409 472.029 74.7246 468.294 76.344C464.592 77.9309 460.484 78.7244 455.97 78.7244C451.456 78.7244 447.332 77.9309 443.597 76.344C439.863 74.7246 436.615 72.409 433.855 69.397C431.127 66.385 429.016 62.7415 427.522 58.4665C426.028 54.1914 425.281 49.3658 425.281 43.9896V40.8319C425.281 35.4557 426.028 30.6301 427.522 26.3551C429.016 22.0476 431.111 18.3879 433.806 15.376C436.534 12.364 439.765 10.0645 443.5 8.47758C447.235 6.85825 451.359 6.04858 455.873 6.04858C460.387 6.04858 464.511 6.85825 468.246 8.47758C471.98 10.0645 475.195 12.364 477.891 15.376C480.619 18.3879 482.73 22.0476 484.223 26.3551C485.717 30.6301 486.464 35.4557 486.464 40.8319ZM470.438 43.9896V40.7348C470.438 37.1398 470.113 33.9659 469.464 31.2131C468.814 28.4278 467.872 26.096 466.638 24.2175C465.404 22.3391 463.878 20.9303 462.059 19.9911C460.241 19.0195 458.179 18.5337 455.873 18.5337C453.47 18.5337 451.375 19.0195 449.589 19.9911C447.803 20.9303 446.293 22.3391 445.059 24.2175C443.857 26.096 442.932 28.4278 442.282 31.2131C441.665 33.9659 441.357 37.1398 441.357 40.7348V43.9896C441.357 47.5522 441.665 50.7261 442.282 53.5113C442.932 56.2642 443.873 58.596 445.107 60.5069C446.341 62.4177 447.852 63.8589 449.638 64.8305C451.456 65.8021 453.567 66.2879 455.97 66.2879C458.276 66.2879 460.322 65.8021 462.108 64.8305C463.927 63.8589 465.453 62.4177 466.687 60.5069C467.921 58.596 468.847 56.2642 469.464 53.5113C470.113 50.7261 470.438 47.5522 470.438 43.9896Z" fill="#6F3EF0"/>
<path d="M518.663 77.7528H503.075L503.173 65.5106H518.663C522.203 65.5106 525.191 64.7009 527.626 63.0816C530.062 61.4299 531.913 59.0009 533.179 55.7946C534.446 52.5559 535.079 48.6209 535.079 43.9896V40.7348C535.079 37.237 534.722 34.1603 534.007 31.5045C533.293 28.8164 532.238 26.5656 530.841 24.7519C529.445 22.9383 527.707 21.578 525.629 20.6712C523.583 19.7644 521.229 19.3109 518.566 19.3109H502.783V7.02018H518.566C523.372 7.02018 527.756 7.82985 531.718 9.44919C535.712 11.0685 539.155 13.3842 542.045 16.3961C544.968 19.4081 547.225 22.9706 548.816 27.0838C550.407 31.1969 551.203 35.7796 551.203 40.8319V43.9896C551.203 49.0096 550.407 53.5923 548.816 57.7378C547.225 61.8509 544.968 65.4134 542.045 68.4254C539.155 71.405 535.729 73.7044 531.767 75.3238C527.805 76.9431 523.437 77.7528 518.663 77.7528ZM512.087 7.02018V77.7528H496.207V7.02018H512.087Z" fill="#6F3EF0"/>
<path d="M609.122 65.5106V77.7528H571.37V65.5106H609.122ZM576.777 7.02018V77.7528H560.897V7.02018H576.777ZM604.251 35.4881V47.3416H571.37V35.4881H604.251ZM609.171 7.02018V19.3109H571.37V7.02018H609.171Z" fill="#6F3EF0"/>
<path d="M243.556 130.24V150.915C242.709 151.877 241.414 152.911 239.672 154.014C237.953 155.118 235.751 156.069 233.067 156.867C230.383 157.642 227.181 158.029 223.461 158.029C220.094 158.029 217.034 157.489 214.279 156.409C211.524 155.306 209.158 153.697 207.18 151.584C205.203 149.447 203.672 146.841 202.589 143.765C201.53 140.689 201 137.167 201 133.199V130.17C201 126.202 201.53 122.68 202.589 119.604C203.649 116.528 205.144 113.933 207.074 111.82C209.005 109.683 211.301 108.063 213.961 106.96C216.622 105.856 219.565 105.304 222.79 105.304C227.381 105.304 231.137 106.044 234.056 107.523C236.976 108.979 239.189 110.998 240.696 113.581C242.226 116.164 243.168 119.134 243.521 122.492H232.432C232.196 120.778 231.725 119.298 231.019 118.054C230.336 116.81 229.359 115.859 228.088 115.201C226.816 114.52 225.168 114.18 223.143 114.18C221.519 114.18 220.047 114.52 218.729 115.201C217.434 115.859 216.339 116.857 215.444 118.195C214.55 119.533 213.867 121.2 213.396 123.196C212.925 125.169 212.69 127.47 212.69 130.099V133.199C212.69 135.829 212.925 138.141 213.396 140.137C213.891 142.133 214.609 143.8 215.55 145.139C216.492 146.454 217.681 147.451 219.117 148.132C220.577 148.813 222.272 149.154 224.203 149.154C225.71 149.154 226.981 149.036 228.017 148.802C229.053 148.543 229.901 148.226 230.56 147.851C231.219 147.451 231.714 147.087 232.043 146.759V138.235H222.896V130.24H243.556Z" fill="#6F3EF0"/>
<path d="M286.395 148.449V157.325H259.025V148.449H286.395ZM262.945 106.044V157.325H251.432V106.044H262.945ZM282.864 126.683V135.277H259.025V126.683H282.864ZM286.431 106.044V114.955H259.025V106.044H286.431Z" fill="#6F3EF0"/>
<path d="M334.461 106.044V157.325H322.983L303.559 124.182V157.325H292.046V106.044H303.559L323.018 139.186V106.044H334.461Z" fill="#6F3EF0"/>
<path d="M377.935 148.449V157.325H350.565V148.449H377.935ZM354.485 106.044V157.325H342.972V106.044H354.485ZM374.404 126.683V135.277H350.565V126.683H374.404ZM377.971 106.044V114.955H350.565V106.044H377.971Z" fill="#6F3EF0"/>
<path d="M383.586 106.044H403.328C407.26 106.044 410.662 106.631 413.534 107.805C416.43 108.979 418.655 110.716 420.209 113.017C421.763 115.319 422.54 118.16 422.54 121.541C422.54 124.358 422.081 126.753 421.163 128.726C420.245 130.698 418.95 132.33 417.278 133.621C415.63 134.913 413.699 135.958 411.486 136.756L407.743 138.799H390.932L390.861 129.888H403.363C405.082 129.888 406.507 129.583 407.637 128.972C408.767 128.362 409.614 127.505 410.179 126.401C410.768 125.274 411.062 123.959 411.062 122.457C411.062 120.907 410.768 119.568 410.179 118.441C409.591 117.314 408.72 116.457 407.566 115.87C406.436 115.26 405.023 114.955 403.328 114.955H395.099V157.325H383.586V106.044ZM412.051 157.325L400.503 134.537L412.652 134.502L424.377 156.797V157.325H412.051Z" fill="#6F3EF0"/>
<path d="M451.712 115.8L438.433 157.325H426.142L445.178 106.044H452.948L451.712 115.8ZM462.73 157.325L449.416 115.8L448.039 106.044H455.914L475.02 157.325H462.73ZM462.165 138.235V147.111H435.36V138.235H462.165Z" fill="#6F3EF0"/>
<path d="M498.93 106.044V157.325H487.452V106.044H498.93ZM514.575 106.044V114.955H472.125V106.044H514.575Z" fill="#6F3EF0"/>
<path d="M562.146 130.557V132.847C562.146 136.744 561.605 140.243 560.522 143.342C559.462 146.442 557.944 149.083 555.966 151.267C554.012 153.451 551.681 155.13 548.973 156.304C546.289 157.454 543.311 158.029 540.038 158.029C536.765 158.029 533.775 157.454 531.068 156.304C528.36 155.13 526.006 153.451 524.004 151.267C522.027 149.083 520.496 146.442 519.413 143.342C518.33 140.243 517.789 136.744 517.789 132.847V130.557C517.789 126.66 518.33 123.161 519.413 120.062C520.496 116.939 522.015 114.285 523.969 112.102C525.947 109.918 528.289 108.251 530.997 107.1C533.705 105.926 536.695 105.339 539.967 105.339C543.24 105.339 546.23 105.926 548.938 107.1C551.645 108.251 553.976 109.918 555.93 112.102C557.908 114.285 559.439 116.939 560.522 120.062C561.605 123.161 562.146 126.66 562.146 130.557ZM550.527 132.847V130.487C550.527 127.881 550.292 125.579 549.821 123.584C549.35 121.564 548.667 119.874 547.772 118.512C546.878 117.15 545.771 116.129 544.453 115.448C543.134 114.743 541.639 114.391 539.967 114.391C538.225 114.391 536.707 114.743 535.412 115.448C534.117 116.129 533.022 117.15 532.127 118.512C531.256 119.874 530.585 121.564 530.114 123.584C529.667 125.579 529.443 127.881 529.443 130.487V132.847C529.443 135.429 529.667 137.731 530.114 139.75C530.585 141.746 531.268 143.436 532.163 144.822C533.057 146.207 534.152 147.252 535.447 147.956C536.765 148.661 538.296 149.013 540.038 149.013C541.71 149.013 543.193 148.661 544.488 147.956C545.806 147.252 546.913 146.207 547.808 144.822C548.702 143.436 549.373 141.746 549.821 139.75C550.292 137.731 550.527 135.429 550.527 132.847Z" fill="#6F3EF0"/>
<path d="M569.209 106.044H588.951C592.883 106.044 596.285 106.631 599.158 107.805C602.054 108.979 604.279 110.716 605.833 113.017C607.387 115.319 608.164 118.16 608.164 121.541C608.164 124.358 607.704 126.753 606.786 128.726C605.868 130.698 604.573 132.33 602.901 133.621C601.253 134.913 599.323 135.958 597.109 136.756L593.366 138.799H576.555L576.485 129.888H588.987C590.705 129.888 592.13 129.583 593.26 128.972C594.39 128.362 595.238 127.505 595.803 126.401C596.391 125.274 596.686 123.959 596.686 122.457C596.686 120.907 596.391 119.568 595.803 118.441C595.214 117.314 594.343 116.457 593.189 115.87C592.059 115.26 590.647 114.955 588.951 114.955H580.723V157.325H569.209V106.044ZM597.675 157.325L586.126 134.537L598.275 134.502L610 156.797V157.325H597.675Z" fill="#6F3EF0"/>
</svg>
