<svg width="28" height="28" viewBox="0 0 28 28" fill="none" xmlns="http://www.w3.org/2000/svg">
<g clip-path="url(#clip0_13_2)">
<mask id="path-1-outside-1_13_2" maskUnits="userSpaceOnUse" x="3" y="-1" width="23" height="28" fill="black">
<rect fill="white" x="3" y="-1" width="23" height="28"/>
<path d="M14.14 8.60862C13.2671 8.60862 11.9164 7.57555 10.4939 7.61196C8.61566 7.63784 6.89392 8.74566 5.92625 10.5004C3.9771 14.0222 5.42354 19.224 7.32482 22.0865C8.2575 23.4799 9.35776 25.0478 10.8162 24.9989C12.2157 24.9366 12.7405 24.053 14.4392 24.053C16.125 24.053 16.6029 24.9989 18.0852 24.9615C19.5924 24.9366 20.5491 23.5432 21.4698 22.1364C22.5341 20.5187 22.9761 18.9499 23 18.8637C22.9641 18.8512 20.0703 17.6936 20.0353 14.2091C20.0114 11.2958 22.3187 9.90236 22.4264 9.84007C21.1107 7.83717 19.0906 7.61292 18.3845 7.56309C16.543 7.41359 15.0008 8.60862 14.14 8.60862ZM17.2501 5.67039C18.0263 4.70056 18.5391 3.34453 18.3964 2C17.2851 2.04983 15.9455 2.77145 15.1445 3.74224C14.4263 4.6009 13.8057 5.98281 13.9724 7.30146C15.2043 7.40113 16.4721 6.64213 17.2492 5.67135"/>
</mask>
<path d="M14.14 8.60862C13.2671 8.60862 11.9164 7.57555 10.4939 7.61196C8.61566 7.63784 6.89392 8.74566 5.92625 10.5004C3.9771 14.0222 5.42354 19.224 7.32482 22.0865C8.2575 23.4799 9.35776 25.0478 10.8162 24.9989C12.2157 24.9366 12.7405 24.053 14.4392 24.053C16.125 24.053 16.6029 24.9989 18.0852 24.9615C19.5924 24.9366 20.5491 23.5432 21.4698 22.1364C22.5341 20.5187 22.9761 18.9499 23 18.8637C22.9641 18.8512 20.0703 17.6936 20.0353 14.2091C20.0114 11.2958 22.3187 9.90236 22.4264 9.84007C21.1107 7.83717 19.0906 7.61292 18.3845 7.56309C16.543 7.41359 15.0008 8.60862 14.14 8.60862ZM17.2501 5.67039C18.0263 4.70056 18.5391 3.34453 18.3964 2C17.2851 2.04983 15.9455 2.77145 15.1445 3.74224C14.4263 4.6009 13.8057 5.98281 13.9724 7.30146C15.2043 7.40113 16.4721 6.64213 17.2492 5.67135" fill="black"/>
<path d="M10.4939 7.61196L10.5215 9.61177L10.5333 9.61161L10.5451 9.61131L10.4939 7.61196ZM5.92625 10.5004L7.67613 11.4688L7.67759 11.4662L5.92625 10.5004ZM7.32482 22.0865L5.65881 23.1931L5.66278 23.199L7.32482 22.0865ZM10.8162 24.9989L10.8832 26.9978L10.8941 26.9974L10.9051 26.9969L10.8162 24.9989ZM18.0852 24.9615L18.0522 22.9618L18.0435 22.9619L18.0348 22.9621L18.0852 24.9615ZM21.4698 22.1364L19.799 21.0371L19.7963 21.0411L21.4698 22.1364ZM23 18.8637L24.9271 19.3986L25.4292 17.5895L23.6556 16.9742L23 18.8637ZM20.0353 14.2091L18.0354 14.2255L18.0354 14.2292L20.0353 14.2091ZM22.4264 9.84007L23.4276 11.5714L25.2604 10.5116L24.098 8.742L22.4264 9.84007ZM18.3845 7.56309L18.2226 9.55653L18.2331 9.55738L18.2437 9.55813L18.3845 7.56309ZM18.3964 2L20.3853 1.7889L20.1866 -0.0822866L18.3068 0.00200777L18.3964 2ZM15.1445 3.74224L16.6786 5.02538L16.6871 5.01512L15.1445 3.74224ZM13.9724 7.30146L11.9882 7.55223L12.1919 9.16395L13.8111 9.29495L13.9724 7.30146ZM14.14 6.60862C14.2733 6.60862 14.288 6.63989 14.0703 6.56272C13.8554 6.48651 13.6519 6.39647 13.2758 6.24368C12.6476 5.98851 11.6103 5.58273 10.4427 5.61262L10.5451 9.61131C10.8001 9.60478 11.1494 9.69733 11.7704 9.94959C12.0188 10.0505 12.4056 10.2165 12.7338 10.3328C13.0593 10.4482 13.5702 10.6086 14.14 10.6086V6.60862ZM10.4664 5.61215C7.79186 5.649 5.45048 7.22153 4.17491 9.53454L7.67759 11.4662C8.33737 10.2698 9.43947 9.62668 10.5215 9.61177L10.4664 5.61215ZM4.17637 9.53189C2.90359 11.8316 2.81097 14.5218 3.20974 16.8749C3.61138 19.2449 4.55077 21.5248 5.65882 23.1931L8.99082 20.98C8.19759 19.7857 7.46312 18.0335 7.15351 16.2065C6.84102 14.3626 6.99976 12.6909 7.67613 11.4688L4.17637 9.53189ZM5.66278 23.199C6.11519 23.8749 6.7311 24.7876 7.47661 25.515C8.22193 26.2423 9.36482 27.0486 10.8832 26.9978L10.7492 23C10.8091 22.998 10.6727 23.0449 10.2701 22.6521C9.86769 22.2595 9.46713 21.6916 8.98685 20.974L5.66278 23.199ZM10.9051 26.9969C12.0436 26.9462 12.8696 26.5323 13.3226 26.3325C13.7461 26.1457 14.0008 26.053 14.4392 26.053V22.053C13.1789 22.053 12.3218 22.4021 11.7084 22.6727C11.1243 22.9303 10.9882 22.9892 10.7272 23.0009L10.9051 26.9969ZM14.4392 26.053C14.84 26.053 15.0588 26.1387 15.5183 26.3453C16.0343 26.5774 16.8956 26.9921 18.1356 26.9609L18.0348 22.9621C17.7925 22.9683 17.6737 22.9288 17.1587 22.6972C16.5873 22.4402 15.7242 22.053 14.4392 22.053V26.053ZM18.1183 26.9612C19.552 26.9375 20.6282 26.243 21.3912 25.5015C22.1176 24.7957 22.7007 23.9078 23.1432 23.2316L19.7963 21.0411C19.3182 21.7717 18.9626 22.284 18.6036 22.6328C18.2814 22.946 18.1257 22.9606 18.0522 22.9618L18.1183 26.9612ZM23.1406 23.2357C24.3704 21.3665 24.8797 19.5694 24.9271 19.3986L21.0729 18.3288C21.076 18.3174 20.9832 18.6548 20.7728 19.1712C20.5611 19.691 20.2414 20.3647 19.799 21.0371L23.1406 23.2357ZM23.6556 16.9742C23.8638 17.0464 23.4066 16.8955 22.9259 16.4186C22.4962 15.9923 22.0465 15.3129 22.0352 14.189L18.0354 14.2292C18.0591 16.5897 19.0737 18.2314 20.1087 19.2582C21.0926 20.2343 22.1003 20.6685 22.3444 20.7532L23.6556 16.9742ZM22.0352 14.1926C22.028 13.3082 22.364 12.67 22.7315 12.2193C23.1176 11.7458 23.5055 11.5264 23.4276 11.5714L21.4252 8.1087C21.195 8.24185 18.0019 10.1577 18.0354 14.2255L22.0352 14.1926ZM24.098 8.742C22.2457 5.9222 19.3858 5.62877 18.5252 5.56805L18.2437 9.55813C18.7955 9.59707 19.9757 9.75213 20.7548 10.9381L24.098 8.742ZM18.5463 5.56965C17.1621 5.45727 15.9689 5.85629 15.1723 6.16472C14.6319 6.37399 14.5571 6.42041 14.2091 6.5501C13.9288 6.65452 13.9654 6.60862 14.14 6.60862V10.6086C14.7449 10.6086 15.2971 10.4133 15.6057 10.2984C15.8464 10.2087 16.4338 9.96567 16.6166 9.89487C17.2668 9.64315 17.7653 9.5194 18.2226 9.55653L18.5463 5.56965ZM18.8116 6.92008C19.853 5.61892 20.5936 3.7517 20.3853 1.7889L16.4076 2.2111C16.4847 2.93737 16.1996 3.78221 15.6886 4.4207L18.8116 6.92008ZM18.3068 0.00200777C16.5469 0.0809245 14.706 1.13116 13.6018 2.46935L16.6871 5.01512C17.185 4.41174 18.0233 4.01874 18.486 3.99799L18.3068 0.00200777ZM13.6103 2.45912C12.6606 3.5946 11.7306 5.5143 11.9882 7.55223L15.9566 7.0507C15.8809 6.45131 16.192 5.60719 16.6786 5.02535L13.6103 2.45912ZM13.8111 9.29495C15.9185 9.46544 17.7729 8.21748 18.8106 6.92119L15.6878 4.42151C15.1713 5.06679 14.4901 5.33682 14.1337 5.30798L13.8111 9.29495Z" fill="white" mask="url(#path-1-outside-1_13_2)"/>
</g>
<defs>
<clipPath id="clip0_13_2">
<rect width="28" height="28" fill="white"/>
</clipPath>
</defs>
</svg>
