<svg width="52" height="52" viewBox="0 0 52 52" fill="none" xmlns="http://www.w3.org/2000/svg">
<g clip-path="url(#clip0_8_3)">
<path d="M52 26.1582C52 11.7997 40.3585 0.158173 26 0.158173C11.6415 0.158173 0 11.7997 0 26.1582C0 39.1365 9.50733 49.8918 21.9375 51.8418V33.6743H15.3357V26.156H21.9375V20.4317C21.9375 13.9165 25.8202 10.3155 31.759 10.3155C34.6017 10.3155 37.5787 10.8247 37.5787 10.8247V17.2228H34.2983C31.0678 17.2228 30.0603 19.227 30.0603 21.2832V26.1582H37.271L36.1183 33.6765H30.0603V51.844C42.4927 49.8918 52 39.1343 52 26.1582Z" fill="#0C8AF0"/>
</g>
<defs>
<clipPath id="clip0_8_3">
<rect width="52" height="52" fill="white"/>
</clipPath>
</defs>
</svg>
