<svg width="165" height="165" viewBox="0 0 165 165" fill="none" xmlns="http://www.w3.org/2000/svg">
<circle cx="82.5" cy="82.5" r="82.5" fill="white"/>
<path d="M140.427 52.7032C139.732 50.0858 138.362 47.6968 136.453 45.7756C134.545 43.8544 132.165 42.4683 129.552 41.7562C119.963 39.1681 81.5 39.1681 81.5 39.1681C81.5 39.1681 43.0369 39.1681 33.4429 41.7562C30.8312 42.4696 28.4526 43.8561 26.545 45.7772C24.6374 47.6983 23.2677 50.0866 22.5727 52.7032C20 62.3587 20 82.5 20 82.5C20 82.5 20 102.641 22.5727 112.297C23.2676 114.914 24.638 117.303 26.5466 119.224C28.4553 121.146 30.8352 122.532 33.448 123.244C43.0369 125.832 81.5 125.832 81.5 125.832C81.5 125.832 119.963 125.832 129.557 123.244C132.17 122.532 134.55 121.146 136.459 119.225C138.368 117.304 139.738 114.914 140.432 112.297C143 102.641 143 82.5 143 82.5C143 82.5 143 62.3587 140.427 52.7032ZM68.9181 100.786V64.214L101.067 82.5L68.9181 100.786Z" fill="#FF0000"/>
</svg>
